<?xml version="1.0" encoding="UTF-8"?>
<svg width="40px" height="40px" viewBox="0 0 40 40" version="1.1" xmlns="http://www.w3.org/2000/svg" xmlns:xlink="http://www.w3.org/1999/xlink">
    <!-- Generator: Sketch 48.2 (47327) - http://www.bohemiancoding.com/sketch -->
    <title>sina weibo</title>
    <desc>Created with Sketch.</desc>
    <defs></defs>
    <g id="最终" stroke="none" stroke-width="1" fill="none" fill-rule="evenodd">
        <path d="M20,40 C8.95430446,40 0,31.0456955 0,20 C0,8.95430446 8.95430446,0 20,0 C31.0456955,0 40,8.95430446 40,20 C40,31.0456955 31.0456955,40 20,40 Z M18,30.4 C24.8483312,30.4 30.3465696,26.8182782 30.3465698,22.4 C30.3465698,18.6674408 25.6723557,18.6674408 25.6723557,18.4265015 C25.6723556,18.1855621 28,16.0171127 25.6723557,14.6678547 C23.3447113,13.3185967 19.0871582,15.3699653 19.2151932,15.1497326 C21.0463287,12 18.4290365,11.0055832 17.0949303,11.0055832 C13.9145363,11.0055832 5.6,17.9817218 5.6,22.4 C5.6,26.8182782 11.1516688,30.4 18,30.4 Z M18.3237001,27.949394 C13.9484203,28.5642994 10.077544,26.7573167 9.67785545,23.9133848 C9.27816689,21.0694529 12.50102,18.2655115 16.8762999,17.650606 C21.2515797,17.0357006 25.122456,18.8426833 25.5221445,21.6866152 C25.9218331,24.5305471 22.69898,27.3344885 18.3237001,27.949394 Z M17.5150482,27.1746965 C20.1173094,26.6688682 21.8851463,24.5008556 21.4636227,22.3323046 C21.0420991,20.1637536 18.5908374,18.8158507 15.9885762,19.321679 C13.386315,19.8275074 11.6184781,21.99552 12.0400017,24.164071 C12.4615254,26.332622 14.912787,27.6805249 17.5150482,27.1746965 Z M17.6,23.2 C17.1581722,23.2 16.8,22.8418278 16.8,22.4 C16.8,21.9581722 17.1581722,21.6 17.6,21.6 C18.0418278,21.6 18.4,21.9581722 18.4,22.4 C18.4,22.8418278 18.0418278,23.2 17.6,23.2 Z M15.7553297,25.0248838 C14.9544657,25.3983328 14.0781821,25.2141517 13.7980953,24.6135037 C13.5180086,24.0128557 13.9401819,23.2231941 14.7410459,22.8497451 C15.5419099,22.4762961 16.4181935,22.6604773 16.6982802,23.2611253 C16.978367,23.8617733 16.5561937,24.6514348 15.7553297,25.0248838 Z M28.7081856,12.7403434 C27.8859869,12.0003644 26.8170792,11.7120654 25.5014626,11.8754465 L25.5014559,11.8753929 C25.1008033,11.9251483 24.8,12.2656179 24.8,12.6693481 L24.8,12.6833923 C24.8,13.0348229 25.0848908,13.3197137 25.4363214,13.3197137 C25.4425461,13.3197137 25.4487705,13.3196223 25.4549925,13.3194397 C26.548915,13.2873123 27.3120609,13.5279754 27.74443,14.0414136 C28.1552641,14.5292792 28.2377252,15.253163 27.9918133,16.2130651 C27.907506,16.5421718 28.1059506,16.8773128 28.4350563,16.9616245 C28.4849369,16.9744031 28.5362247,16.9808683 28.5877162,16.9808683 L28.781866,16.9808637 C29.1717408,16.9808637 29.5048377,16.6998161 29.570451,16.3155021 C29.8466103,14.6979657 29.5591885,13.5062461 28.7081856,12.7403434 Z M31.4067017,10.138203 C29.8516496,8.66797171 27.7528219,7.93962604 25.1102186,7.95316603 L25.1102187,7.9531798 C24.4961438,7.95632615 24,8.4550186 24,9.06910152 C24,9.62586268 24.4513441,10.0772068 25.0081052,10.0772068 C25.0164491,10.0772068 25.0247926,10.0771032 25.0331339,10.076896 C27.5423728,10.0145912 29.2653304,10.6556218 30.2020069,12.0000002 C31.1142313,13.3092832 31.431794,14.9710373 31.1546952,16.9852625 L31.1547159,16.9852654 C31.0879745,17.470407 31.4271549,17.9177965 31.9122965,17.9845379 C31.9523428,17.9900471 31.992719,17.9928114 32.0331425,17.9928114 L32.0602669,17.9928316 C32.6687282,17.9928316 33.1808892,17.5374451 33.2520517,16.9331596 C33.6088189,13.9036256 32.9937023,11.63864 31.4067017,10.138203 Z" id="sina-weibo" fill="#D32024"></path>
    </g>
</svg>